<?xml version="1.0" encoding="UTF-8"?>
<svg width="24px" height="24px" viewBox="0 0 24 24" version="1.1" xmlns="http://www.w3.org/2000/svg" xmlns:xlink="http://www.w3.org/1999/xlink">
    <!-- Generator: Sketch 46.2 (44496) - http://www.bohemiancoding.com/sketch -->
    <title>github-icon</title>
    <desc>Created with Sketch.</desc>
    <defs></defs>
    <g id="Coming-Soon" stroke="none" stroke-width="1" fill="none" fill-rule="evenodd">
        <g id="github-icon" fill="#161514">
            <g id="Github" transform="translate(1.000000, 1.000000)">
                <path d="M10.8880784,0 C4.87554691,0 0,4.83630882 0,10.8024492 C0,15.5752542 3.11976585,19.6244733 7.4459325,21.0528623 C7.990084,21.1528585 8.18985864,20.8185242 8.18985864,20.5332042 C8.18985864,20.2756112 8.17976172,19.4246598 8.17507387,18.522011 C5.14599994,19.1754743 4.50682928,17.2474622 4.50682928,17.2474622 C4.01153963,15.9988516 3.29790424,15.6668428 3.29790424,15.6668428 C2.31002948,14.9963855 3.37236897,15.0101595 3.37236897,15.0101595 C4.46572042,15.0863641 5.04142477,16.1233549 5.04142477,16.1233549 C6.01253145,17.7748123 7.5885514,17.2973708 8.20987216,17.0213528 C8.30759586,16.3231684 8.58976852,15.8466213 8.9011501,15.5768642 C6.48275912,15.3037082 3.94050064,14.3774467 3.94050064,10.238249 C3.94050064,9.05886652 4.3658331,8.09521821 5.0623398,7.33871762 C4.94929044,7.066635 4.57660616,5.96792924 5.16781649,4.47997182 C5.16781649,4.47997182 6.08212803,4.18964303 8.16281333,5.58726401 C9.03132816,5.34791717 9.9627684,5.22788598 10.8880784,5.22377165 C11.8133883,5.22788598 12.7455498,5.34791717 13.6156873,5.58726401 C15.6938484,4.18964303 16.6068978,4.47997182 16.6068978,4.47997182 C17.1995506,5.96792924 16.826686,7.066635 16.7136366,7.33871762 C17.411766,8.09521821 17.8342137,9.05886652 17.8342137,10.238249 C17.8342137,14.3872853 15.287087,15.3008461 12.8625658,15.5682777 C13.2531,15.9035064 13.6010828,16.5609053 13.6010828,17.5687379 C13.6010828,19.0141209 13.5884617,20.1774038 13.5884617,20.5332042 C13.5884617,20.8206708 13.78445,21.1575095 14.3363545,21.0514312 C18.6601772,19.6214323 21.7759764,15.5736443 21.7759764,10.8024492 C21.7759764,4.83630882 16.9011507,0 10.8880784,0" id="Fill-4"></path>
                <path d="M4.15597209,18.4358333 C4.13203652,18.4889694 4.04709221,18.5049102 3.96970651,18.4684234 C3.89088108,18.4335308 3.84660926,18.3610887 3.87216453,18.3077756 C3.89556021,18.2530455 3.98068448,18.2378132 4.05932995,18.274477 C4.13833535,18.3093696 4.18332704,18.3825202 4.15597209,18.4358333" id="Fill-5"></path>
                <path d="M4.59617076,18.9190168 C4.54434034,18.9663078 4.44301906,18.944345 4.37427176,18.8696003 C4.30318489,18.7950328 4.28986735,18.6953142 4.34241764,18.6473147 C4.39586777,18.6000236 4.49412961,18.6221636 4.56539644,18.6967312 C4.63648331,18.7721843 4.65034075,18.8711944 4.59617076,18.9190168" id="Fill-6"></path>
                <path d="M5.02467158,19.5350402 C4.95808389,19.5805601 4.849204,19.5378742 4.78189644,19.4427607 C4.71530874,19.3476473 4.71530874,19.233582 4.78333618,19.187885 C4.85082371,19.142188 4.95808389,19.1832799 5.02629128,19.2776848 C5.09269901,19.3743924 5.09269901,19.4884577 5.02467158,19.5350402" id="Fill-7"></path>
                <path d="M5.61172311,20.1301635 C5.55215412,20.1948124 5.42527756,20.1774546 5.33241472,20.0892488 C5.23739228,20.0029914 5.21093717,19.8806014 5.27068613,19.8159526 C5.33097499,19.7511267 5.45857141,19.76937 5.55215412,19.8568673 C5.6464567,19.9429477 5.67525137,20.0662232 5.61172311,20.1301635" id="Fill-8"></path>
                <path d="M6.42157348,20.4757247 C6.39529833,20.5595025 6.27310091,20.5975833 6.15000365,20.5619822 C6.02708637,20.5253183 5.94664123,20.4271938 5.97147664,20.3425305 C5.99703192,20.2582213 6.11976924,20.2185464 6.24376633,20.2566272 C6.36650365,20.293114 6.44712875,20.39053 6.42157348,20.4757247" id="Fill-9"></path>
                <path d="M7.31096914,20.5398422 C7.31402858,20.6280479 7.20964786,20.7011985 7.08043174,20.7027926 C6.95049575,20.7056265 6.84539517,20.6342471 6.84395543,20.5474583 C6.84395543,20.458367 6.94599658,20.3859249 7.07593257,20.3837994 C7.20514869,20.3813197 7.31096914,20.4521678 7.31096914,20.5398422" id="Fill-10"></path>
                <path d="M8.13863621,20.4011572 C8.15411335,20.4872375 8.06430994,20.5756204 7.93599365,20.5991774 C7.80983696,20.6218487 7.69303855,20.5687127 7.6770215,20.4833409 C7.6613644,20.3951351 7.75278751,20.3067522 7.87876423,20.2839037 C8.00726049,20.2619408 8.12225924,20.3136599 8.13863621,20.4011572" id="Fill-11"></path>
            </g>
        </g>
    </g>
</svg>