<?xml version="1.0" encoding="UTF-8"?>
<svg width="24px" height="24px" viewBox="0 0 24 24" version="1.1" xmlns="http://www.w3.org/2000/svg" xmlns:xlink="http://www.w3.org/1999/xlink">
    <!-- Generator: Sketch 46.2 (44496) - http://www.bohemiancoding.com/sketch -->
    <title>slack_icon</title>
    <desc>Created with Sketch.</desc>
    <defs></defs>
    <g id="Coming-Soon" stroke="none" stroke-width="1" fill="none" fill-rule="evenodd">
        <g id="slack_icon">
            <g id="Group" transform="translate(1.000000, 1.000000)">
                <path d="M14.2624918,1.36606426 C13.9281639,0.33319082 12.8229344,-0.232020984 11.7939836,0.103703607 C10.7648525,0.439247213 10.2016885,1.54849574 10.5361967,2.5811882 L15.6019672,18.2239633 C15.9498197,19.1887869 16.9883279,19.7310138 17.9851803,19.4430688 C19.0249508,19.1426361 19.6588033,18.0342925 19.327,17.0093823 C19.3143771,16.9702899 14.2624918,1.36606426 14.2624918,1.36606426" id="Shape" fill="#DFA22F"></path>
                <path d="M6.41318033,3.92571541 C6.07867213,2.89302295 4.97344262,2.32781115 3.9444918,2.66335475 C2.91536065,2.99889836 2.35219672,4.10814688 2.68670492,5.14102033 L7.75247541,20.7837954 C8.10032787,21.748619 9.13883609,22.2908459 10.1356885,22.00272 C11.175459,21.7024682 11.8093115,20.5941246 11.4775082,19.5690334 C11.4648853,19.530122 6.41318033,3.92571541 6.41318033,3.92571541" id="Shape" fill="#3CB187"></path>
                <path d="M20.6388853,14.3214138 C21.6680164,13.9858701 22.231,12.8766216 21.8966721,11.8437482 C21.5623443,10.8110558 20.4571147,10.2458439 19.4281639,10.5813875 L3.84206557,15.66576 C2.88073771,16.0146964 2.34047541,17.056981 2.62737705,18.0574584 C2.92672131,19.1010099 4.03104918,19.7371672 5.0522459,19.4041574 C5.09119672,19.3914885 20.6388853,14.3214138 20.6388853,14.3214138" id="Shape" fill="#CE1E5B"></path>
                <path d="M7.0904918,18.7395855 C8.10501639,18.4087475 9.41257376,17.9823501 10.8157049,17.5248236 C10.4860656,16.5066099 10.0612131,15.1941167 9.60516391,13.7857023 L5.87977049,15.0010072 L7.0904918,18.7395855" id="Shape" fill="#392538"></path>
                <path d="M14.9399836,16.1797534 C16.3483443,15.720598 17.6573443,15.2936577 18.6651967,14.9649915 C18.3355574,13.9467777 17.9105246,12.6339226 17.4544754,11.2251462 L13.729082,12.4404512 L14.9399836,16.1797534" id="Shape" fill="#BB242A"></path>
                <path d="M18.0885082,6.44337836 C19.117459,6.10783475 19.6806229,4.99858623 19.3462951,3.96571279 C19.0119672,2.93302033 17.9067377,2.36780853 16.8776065,2.70335213 L1.2915082,7.78772459 C0.330180328,8.13666099 -0.210081967,9.17894554 0.077,10.1794229 C0.376163935,11.2229745 1.4804918,11.8591318 2.50186885,11.526122 C2.54063935,11.5134531 18.0885082,6.44337836 18.0885082,6.44337836" id="Shape" fill="#72C5CD"></path>
                <path d="M4.53939344,10.8617312 C5.55391803,10.5308931 6.86183607,10.1043147 8.26514754,9.64678823 C7.80765574,8.23312525 7.38226229,6.91936525 7.05478689,5.90766688 L3.3284918,7.12315279 L4.53939344,10.8617312" id="Shape" fill="#248C73"></path>
                <path d="M12.3887049,8.30208 C13.7974262,7.84274361 15.1066065,7.41580328 16.1146393,7.08695607 C15.6569672,5.67311213 15.2315738,4.35899016 14.903918,3.34711082 L11.1778033,4.56259672 L12.3887049,8.30208" id="Shape" fill="#62803A"></path>
            </g>
        </g>
    </g>
</svg>